<?xml version="1.0" encoding="utf-8"?>
<!-- Generator: Adobe Illustrator 24.1.0, SVG Export Plug-In . SVG Version: 6.00 Build 0)  -->
<svg version="1.1" id="Layer_1" xmlns="http://www.w3.org/2000/svg" xmlns:xlink="http://www.w3.org/1999/xlink" x="0px" y="0px"
	 viewBox="0 0 92.1 94.1" style="enable-background:new 0 0 92.1 94.1;" xml:space="preserve">
<path fill="white" id="Layer_2_1_" d="M90.8,0.5c-0.9-0.6-2.1-0.6-3-0.1L1.5,48.8c-1.4,0.8-1.9,2.7-1.1,4.1c0.3,0.6,0.9,1,1.5,1.3L17.3,60
	c1.1,0.3,2.2-0.3,2.5-1.3s-0.2-2-1.1-2.4l-13.3-5L88,4.8l-5.7,83.8L34.8,60.3l46.1-44c0.8-0.8,0.8-2,0.1-2.8s-2-0.8-2.8-0.1
	L31.1,58.3c-0.7,0.6-1,1.6-0.9,2.5c0,0.2,0.1,0.5,0.2,0.7L36,91.8c0.2,1.1,1.1,2,2.2,2.3c0.2,0.1,0.5,0.1,0.7,0.1
	c0.9,0,1.8-0.4,2.4-1.1l12.9-16.6l27.6,16.4c1.4,0.8,3.3,0.3,4.1-1.1c0.2-0.4,0.3-0.8,0.4-1.2l5.9-87.3C92.2,2.1,91.7,1,90.8,0.5z
	 M39.5,88.7l-4.4-23.6l15.6,9.3L39.5,88.7z"/>
</svg>
